<svg xmlns="http://www.w3.org/2000/svg" width="18.557" height="22.214" viewBox="0 0 18.557 22.214">
  <g id="Group_1418" data-name="Group 1418" transform="translate(0 -10.425)">
    <g id="Group_1417" data-name="Group 1417" transform="translate(0 10.425)">
      <g id="Group_784" data-name="Group 784">
        <path id="Path_1916" data-name="Path 1916" d="M3643.858-5548.729H3626.45a.575.575,0,0,1-.574-.576v-.926a2.928,2.928,0,0,1,.616-1.8,4.97,4.97,0,0,0,1.2-2.248v-6a6.749,6.749,0,0,1,5.616-6.326,1.814,1.814,0,0,1,1.828-1.4,1.815,1.815,0,0,1,1.826,1.393,6.746,6.746,0,0,1,5.645,6.331v6a4.968,4.968,0,0,0,1.205,2.248,2.927,2.927,0,0,1,.616,1.8v.926A.575.575,0,0,1,3643.858-5548.729Zm-16.833-1.15h16.258v-.352a1.766,1.766,0,0,0-.372-1.087,5.516,5.516,0,0,1-1.448-2.956v-6c0-2.592-2.168-4.815-5.155-5.286a.578.578,0,0,1-.382-.239.573.573,0,0,1-.092-.441.538.538,0,0,0,.011-.078c0-.288-.323-.53-.7-.53s-.7.243-.7.53a.512.512,0,0,0,.011.08.576.576,0,0,1-.09.441.577.577,0,0,1-.381.24c-2.972.479-5.13,2.7-5.13,5.283v6a5.512,5.512,0,0,1-1.449,2.956,1.768,1.768,0,0,0-.371,1.087Z" transform="translate(-3625.876 5568)" fill="#939393"/>
      </g>
      <g id="Group_785" data-name="Group 785" transform="translate(5.849 18.122)">
        <path id="Path_1917" data-name="Path 1917" d="M3646.936-5510.018a3.667,3.667,0,0,1-3.667-3.49.577.577,0,0,1,.158-.424.576.576,0,0,1,.417-.178h6.186a.574.574,0,0,1,.416.178.575.575,0,0,1,.158.424A3.667,3.667,0,0,1,3646.936-5510.018Zm-2.416-2.943a2.52,2.52,0,0,0,2.416,1.794,2.52,2.52,0,0,0,2.417-1.794Z" transform="translate(-3643.269 5514.11)" fill="#939393"/>
      </g>
    </g>
  </g>
</svg>
