<svg xmlns="http://www.w3.org/2000/svg" width="25.338" height="25.634" viewBox="0 0 25.338 25.634">
  <g id="Group_1017" data-name="Group 1017" transform="translate(0)">
    <path id="Path_1934" data-name="Path 1934" d="M3892.143-3847.924l3.242-19.816-6.753,6.484-4.646-9.725-4.609,9.725-6.753-6.484,3.242,19.816Zm-14.194-5.082h12.022a.644.644,0,0,1,.644.644.644.644,0,0,1-.644.644h-12.022a.644.644,0,0,1-.644-.644A.643.643,0,0,1,3877.949-3853.006Z" transform="translate(-3871.336 3872.269)" fill="none"/>
    <path id="Path_1990" data-name="Path 1990" d="M3872.364-3849.947a1.287,1.287,0,0,0,1.271,1.08h16.278a1.288,1.288,0,0,0,1.271-1.08l3.234-19.77a1.3,1.3,0,0,0,.025-.254,1.287,1.287,0,0,0-1.259-1.288h-.076a1.28,1.28,0,0,0-.841.353h0l0,0-5.467,5.25-3.878-8.118a1.289,1.289,0,0,0-1.162-.733h0a1.289,1.289,0,0,0-1.162.737l-3.843,8.109-5.462-5.245a1.289,1.289,0,0,0-.893-.358,1.288,1.288,0,0,0-.6.147,1.288,1.288,0,0,0-.672,1.348Zm4.782-13.54,4.609-9.725,4.646,9.725,6.753-6.483-3.242,19.815h-16.278l-3.242-19.815Z" transform="translate(-3869.106 3874.5)" fill="#939393"/>
    <path id="Path_1991" data-name="Path 1991" d="M3886.054-3820.6h12.023a.644.644,0,0,0,.644-.644.644.644,0,0,0-.644-.644h-12.023a.643.643,0,0,0-.643.644A.644.644,0,0,0,3886.054-3820.6Z" transform="translate(-3879.441 3841.146)" fill="#939393"/>
  </g>
</svg>
