<svg xmlns="http://www.w3.org/2000/svg" width="25.263" height="25.558" viewBox="0 0 25.263 25.558">
  <path id="Path_7795" data-name="Path 7795" d="M298.365,710h-.076a1.279,1.279,0,0,0-.838.352h0l0,0-5.451,5.234-3.866-8.093a1.284,1.284,0,0,0-1.159-.73h0a1.284,1.284,0,0,0-1.159.734l-3.832,8.085-5.447-5.23a1.284,1.284,0,0,0-2.157,1.133l3.232,19.758a1.284,1.284,0,0,0,1.267,1.077H295.1a1.284,1.284,0,0,0,1.267-1.077l3.225-19.712a1.285,1.285,0,0,0-1.23-1.538Zm-5.427,17.258H280.95a.642.642,0,0,1,0-1.284h11.987a.642.642,0,0,1,0,1.284Z" transform="translate(-274.357 -706.763)" fill="#00b5a5" style="mix-blend-mode: multiply;isolation: isolate"/>
</svg>
