<svg xmlns="http://www.w3.org/2000/svg" width="28.434" height="24.552" viewBox="0 0 28.434 24.552">
  <path id="Path_7796" data-name="Path 7796" d="M1012.3,1710.125a7.5,7.5,0,0,0-3.982-1.156,7.8,7.8,0,0,0-6.236,3.222,7.8,7.8,0,0,0-6.236-3.222,7.494,7.494,0,0,0-3.982,1.156,9.026,9.026,0,0,0-2.927,11.8c1.8,3.369,9.4,9.22,12.149,11.266a1.663,1.663,0,0,0,1.99,0c2.746-2.046,10.349-7.9,12.15-11.266A9.026,9.026,0,0,0,1012.3,1710.125Z" transform="translate(-987.868 -1708.969)" fill="#00b5a5" style="mix-blend-mode: multiply;isolation: isolate"/>
</svg>
