<svg xmlns="http://www.w3.org/2000/svg" width="22.725" height="24.324" viewBox="0 0 22.725 24.324">
  <path id="Path_7812" data-name="Path 7812" d="M983.86,725.2l-8.653-7.187a2.293,2.293,0,0,0-2.857,0L963.7,725.2a3.432,3.432,0,0,0-1.281,2.626v13.383a.629.629,0,0,0,.629.629H970.4a.629.629,0,0,0,.629-.629v-8.264a2.885,2.885,0,0,1,5.684,0v8.264a.629.629,0,0,0,.629.629h7.174a.629.629,0,0,0,.629-.629V727.824A3.432,3.432,0,0,0,983.86,725.2Z" transform="translate(-962.416 -717.512)" fill="#00b5a5"/>
</svg>
