<svg xmlns="http://www.w3.org/2000/svg" width="23.063" height="24.686" viewBox="0 0 23.063 24.686">
  <path id="Path_4770" data-name="Path 4770" d="M4537.938-3865.654h0l-8.782-7.293a2.326,2.326,0,0,0-2.9,0l-8.781,7.293a3.484,3.484,0,0,0-1.3,2.666v13.582a.638.638,0,0,0,.638.638h7.46a.638.638,0,0,0,.638-.638v-8.386a2.688,2.688,0,0,1,2.885-2.425,2.688,2.688,0,0,1,2.884,2.425v8.386a.638.638,0,0,0,.638.638h7.281a.638.638,0,0,0,.638-.638v-13.582A3.483,3.483,0,0,0,4537.938-3865.654Zm.024,15.609h-6v-7.748a3.956,3.956,0,0,0-4.161-3.7,3.956,3.956,0,0,0-4.161,3.7v7.748h-6.184v-12.943a2.212,2.212,0,0,1,.839-1.684l8.782-7.294a1.046,1.046,0,0,1,1.268,0l8.781,7.294h0a2.211,2.211,0,0,1,.839,1.684Z" transform="translate(-4516.176 3873.454)" fill="#939393"/>
</svg>
