<svg xmlns="http://www.w3.org/2000/svg" width="18.046" height="15.582" viewBox="0 0 18.046 15.582">
  <g id="Group_776" data-name="Group 776" transform="translate(0 0)">
    <path id="Path_1911" data-name="Path 1911" d="M4046.212-4246.6a4.76,4.76,0,0,0-2.527-.733,4.948,4.948,0,0,0-3.958,2.045,4.947,4.947,0,0,0-3.957-2.045,4.755,4.755,0,0,0-2.527.733,5.728,5.728,0,0,0-1.858,7.488c1.143,2.139,5.968,5.852,7.711,7.15a1.056,1.056,0,0,0,.631.209,1.057,1.057,0,0,0,.632-.209c1.743-1.3,6.568-5.011,7.711-7.15A5.728,5.728,0,0,0,4046.212-4246.6Zm1.134,7.1c-.856,1.6-4.424,4.6-7.477,6.879a.232.232,0,0,1-.141.047.232.232,0,0,1-.141-.047c-3.053-2.274-6.621-5.276-7.477-6.879a4.9,4.9,0,0,1,1.568-6.406,3.945,3.945,0,0,1,2.093-.61,4.108,4.108,0,0,1,3.3,1.715l.658.883.658-.883a4.109,4.109,0,0,1,3.3-1.715,3.959,3.959,0,0,1,2.093.61A4.9,4.9,0,0,1,4047.345-4239.5Z" transform="translate(-4030.704 4247.335)" fill="#939393"/>
  </g>
</svg>
