<svg id="Group_1094" data-name="Group 1094" xmlns="http://www.w3.org/2000/svg" width="17.893" height="15.45" viewBox="0 0 17.893 15.45">
  <path id="Path_3570" data-name="Path 3570" d="M954.08,1406.392a4.717,4.717,0,0,0-2.506-.728,4.81,4.81,0,0,1-7.848,0,4.714,4.714,0,0,0-2.506.728,5.68,5.68,0,0,0-1.841,7.425c1.133,2.12,5.917,5.8,7.646,7.089a1.045,1.045,0,0,0,1.252,0c1.728-1.287,6.513-4.969,7.645-7.089A5.679,5.679,0,0,0,954.08,1406.392Z" transform="translate(-938.704 -1405.664)" fill="#bababa"/>
</svg>
