<svg xmlns="http://www.w3.org/2000/svg" width="25.029" height="25.029" viewBox="0 0 25.029 25.029">
  <g id="Group_1016" data-name="Group 1016" transform="translate(0)">
    <path id="Path_1930" data-name="Path 1930" d="M3667.127-3847.648a11.239,11.239,0,0,0,11.226-11.226,11.239,11.239,0,0,0-11.226-11.226,11.239,11.239,0,0,0-11.227,11.226A11.239,11.239,0,0,0,3667.127-3847.648Zm2.97-16.253v-1.489h3.8v1.53h-3.8Zm-1.228,11.475.1-.136a3.664,3.664,0,0,0,.218-.317c.055-.088.105-.18.156-.281.027-.054.047-.1.062-.134l.007-.016c.029-.065.056-.126.079-.188.017-.042.037-.094.057-.152.014-.041.03-.089.048-.15l.019-.06.009-.031h1.629c.777,0,1.222-.585,1.222-1.606v-3.449h1.422v3.449c0,1.936-1.013,3.139-2.644,3.139h-2.439Zm-8.516.025v-1.482h5.413a1.491,1.491,0,0,0,1.467-1.607v-.92a1.389,1.389,0,0,0-.316-.926,1.65,1.65,0,0,0-.847-.5l-3.524-.913a2.632,2.632,0,0,1-2.193-2.769v-1a2.673,2.673,0,0,1,2.9-2.865h5.4v1.525h-5.4a1.281,1.281,0,0,0-1.467,1.34v1a1.4,1.4,0,0,0,.315.927,1.654,1.654,0,0,0,.848.5l3.523.913a2.632,2.632,0,0,1,2.193,2.77v1.186c0,.085,0,.176-.011.279,0,.021,0,.043,0,.065l0,.019c-.006.065-.014.129-.023.192l0,.022c0,.021-.007.043-.011.064-.016.091-.032.17-.051.242,0,.016-.009.031-.014.046l-.007.024c-.018.063-.034.117-.052.167s-.025.07-.038.1-.033.081-.053.126l-.009.02c-.011.025-.024.053-.037.08-.034.068-.069.129-.1.187a2.4,2.4,0,0,1-.987.907,3.273,3.273,0,0,1-1.489.323h-5.413Z" transform="translate(-3654.612 3871.388)" fill="none"/>
    <path id="Path_1958" data-name="Path 1958" d="M3664.9-3848.59a12.528,12.528,0,0,0,12.514-12.514,12.529,12.529,0,0,0-12.514-12.514,12.529,12.529,0,0,0-12.514,12.514A12.529,12.529,0,0,0,3664.9-3848.59Zm0-23.741a11.239,11.239,0,0,1,11.226,11.226,11.239,11.239,0,0,1-11.226,11.226,11.239,11.239,0,0,1-11.227-11.226A11.239,11.239,0,0,1,3664.9-3872.331Z" transform="translate(-3652.383 3873.619)" fill="#939393"/>
    <path id="Path_1959" data-name="Path 1959" d="M3694.8-3855.7h3.677v-1.53h-3.8v1.53h.127Z" transform="translate(-3679.192 3863.232)" fill="#939393"/>
    <path id="Path_1960" data-name="Path 1960" d="M3691.438-3833.046h2.183c1.631,0,2.644-1.2,2.644-3.138v-3.448h-1.422v3.448c0,1.021-.446,1.606-1.222,1.606h-1.628l-.01.03-.019.061c-.018.06-.033.108-.048.149-.02.058-.039.11-.057.153-.023.062-.05.123-.078.188l-.007.016c-.015.034-.036.08-.063.134-.05.1-.1.193-.155.281a3.539,3.539,0,0,1-.219.317l-.1.136-.052.067h.257Z" transform="translate(-3676.977 3852.075)" fill="#939393"/>
    <path id="Path_1961" data-name="Path 1961" d="M3668.19-3844.2h5.285a3.276,3.276,0,0,0,1.49-.323,2.411,2.411,0,0,0,.987-.906c.035-.058.069-.119.1-.187.014-.028.027-.056.038-.081l.009-.02c.02-.045.038-.086.053-.126s.025-.067.038-.1.034-.1.052-.167c0-.008,0-.016.007-.024s.01-.031.014-.046c.018-.072.035-.152.051-.243,0-.021.007-.042.01-.064l0-.022c.01-.063.017-.127.023-.192l0-.019c0-.021,0-.043.005-.065.007-.1.011-.194.011-.278v-1.187a2.631,2.631,0,0,0-2.193-2.769l-3.523-.913a1.647,1.647,0,0,1-.847-.5,1.389,1.389,0,0,1-.316-.926v-1a1.281,1.281,0,0,1,1.467-1.341h5.4v-1.524h-5.4a2.673,2.673,0,0,0-2.9,2.865v1a2.632,2.632,0,0,0,2.193,2.77l3.523.912a1.651,1.651,0,0,1,.847.5,1.39,1.39,0,0,1,.316.926v.92a1.491,1.491,0,0,1-1.467,1.607h-5.413v1.524h.127Z" transform="translate(-3662.322 3863.232)" fill="#939393"/>
  </g>
</svg>
