<svg xmlns="http://www.w3.org/2000/svg" width="25.021" height="25.029" viewBox="0 0 25.021 25.029">
  <g id="Group_1015" data-name="Group 1015" transform="translate(0)">
    <ellipse id="Ellipse_31" data-name="Ellipse 31" cx="1.596" cy="1.596" rx="1.596" ry="1.596" transform="translate(14.521 16.265)" fill="none"/>
    <path id="Path_1935" data-name="Path 1935" d="M4105.374-3854.083a1.6,1.6,0,0,0,1.6-1.6,1.6,1.6,0,0,0-1.6-1.6,1.6,1.6,0,0,0-1.6,1.6A1.6,1.6,0,0,0,4105.374-3854.083Z" transform="translate(-4096.469 3863.236)" fill="none"/>
    <path id="Path_1936" data-name="Path 1936" d="M4092.348-3849.461a11.152,11.152,0,0,0,8.433,1.651,11.154,11.154,0,0,0,7.129-4.8,11.239,11.239,0,0,0-3.145-15.562,11.162,11.162,0,0,0-6.191-1.87,11.228,11.228,0,0,0-9.371,5.014A11.239,11.239,0,0,0,4092.348-3849.461Zm12.7-4a2.888,2.888,0,0,1-2.884,2.884,2.888,2.888,0,0,1-2.884-2.884,2.888,2.888,0,0,1,2.884-2.884A2.888,2.888,0,0,1,4105.048-3853.464Zm-3.034-11.562a.774.774,0,0,1,1.077-.19.773.773,0,0,1,.189,1.076l-8.379,11.96a.773.773,0,0,1-.634.329.765.765,0,0,1-.443-.14.773.773,0,0,1-.189-1.076Zm-7.064-1.627a2.887,2.887,0,0,1,2.885,2.884,2.887,2.887,0,0,1-2.885,2.884,2.887,2.887,0,0,1-2.884-2.884A2.887,2.887,0,0,1,4094.95-3866.653Z" transform="translate(-4086.046 3871.325)" fill="none"/>
    <path id="Path_1986" data-name="Path 1986" d="M4089.406-3850.618a12.425,12.425,0,0,0,6.9,2.092,12.623,12.623,0,0,0,2.5-.251,12.427,12.427,0,0,0,7.947-5.346,12.528,12.528,0,0,0-3.505-17.347,12.529,12.529,0,0,0-17.348,3.506A12.528,12.528,0,0,0,4089.406-3850.618Zm-2.433-16.635a11.226,11.226,0,0,1,9.372-5.014,11.164,11.164,0,0,1,6.191,1.87,11.239,11.239,0,0,1,3.145,15.562,11.155,11.155,0,0,1-7.13,4.8,11.158,11.158,0,0,1-8.433-1.651A11.24,11.24,0,0,1,4086.974-3867.253Z" transform="translate(-4083.816 3873.555)" fill="#939393"/>
    <path id="Path_1987" data-name="Path 1987" d="M4104.493-3843.884a.765.765,0,0,0,.442.14.775.775,0,0,0,.634-.329l8.379-11.96a.771.771,0,0,0-.189-1.076.774.774,0,0,0-1.077.188l-8.379,11.959A.774.774,0,0,0,4104.493-3843.884Z" transform="translate(-4096.714 3863.219)" fill="#939393"/>
    <path id="Path_1988" data-name="Path 1988" d="M4103.144-3855.025a2.887,2.887,0,0,0,2.883-2.884,2.887,2.887,0,0,0-2.883-2.885,2.888,2.888,0,0,0-2.885,2.885A2.888,2.888,0,0,0,4103.144-3855.025Zm0-4.48a1.6,1.6,0,0,1,1.6,1.6,1.6,1.6,0,0,1-1.6,1.6,1.6,1.6,0,0,1-1.6-1.6A1.6,1.6,0,0,1,4103.144-3859.505Z" transform="translate(-4094.239 3865.465)" fill="#939393"/>
    <path id="Path_1989" data-name="Path 1989" d="M4119.961-3829.763a2.887,2.887,0,0,0,2.883,2.884,2.888,2.888,0,0,0,2.886-2.884,2.889,2.889,0,0,0-2.886-2.885A2.888,2.888,0,0,0,4119.961-3829.763Zm4.481,0a1.6,1.6,0,0,1-1.6,1.6,1.6,1.6,0,0,1-1.6-1.6,1.6,1.6,0,0,1,1.6-1.6A1.6,1.6,0,0,1,4124.442-3829.763Z" transform="translate(-4106.729 3847.624)" fill="#939393"/>
  </g>
</svg>
