<svg id="Group_1889" data-name="Group 1889" xmlns="http://www.w3.org/2000/svg" width="24.228" height="24.22" viewBox="0 0 24.228 24.22">
  <path id="Path_4563" data-name="Path 4563" d="M544.291,764.644a1.545,1.545,0,1,0,1.545,1.545A1.547,1.547,0,0,0,544.291,764.644Z" transform="translate(-528.687 -748.898)" fill="#00b5a5"/>
  <path id="Path_4564" data-name="Path 4564" d="M523.341,737.8a1.545,1.545,0,1,0-1.545-1.545A1.547,1.547,0,0,0,523.341,737.8Z" transform="translate(-514.717 -728.94)" fill="#00b5a5"/>
  <path id="Path_4565" data-name="Path 4565" d="M524.533,727.1a12.1,12.1,0,1,0-1.78,9.1A12.03,12.03,0,0,0,524.533,727.1Zm-8.38,10.367a2.791,2.791,0,1,1,2.791-2.791A2.794,2.794,0,0,1,516.153,737.465Zm-6.98-15.554a2.791,2.791,0,1,1-2.791,2.791A2.794,2.794,0,0,1,509.173,721.911Zm-.662,14.325a.748.748,0,0,1-.612-1.177l8.109-11.573a.748.748,0,1,1,1.225.858l-8.109,11.573A.748.748,0,0,1,508.512,736.236Z" transform="translate(-500.549 -717.383)" fill="#00b5a5"/>
  <path id="Path_4566" data-name="Path 4566" d="M531.49,734.878a.747.747,0,0,0-1.042.183l-8.109,11.573a.748.748,0,1,0,1.225.858l8.109-11.573A.748.748,0,0,0,531.49,734.878Z" transform="translate(-514.99 -728.958)" fill="#fff"/>
  <path id="Path_4567" data-name="Path 4567" d="M520.847,736.557a2.791,2.791,0,1,0-2.791-2.792A2.795,2.795,0,0,0,520.847,736.557Zm0-4.336a1.545,1.545,0,1,1-1.545,1.545A1.547,1.547,0,0,1,520.847,732.22Z" transform="translate(-512.223 -726.446)" fill="#fff"/>
  <path id="Path_4568" data-name="Path 4568" d="M541.8,760.9a2.791,2.791,0,1,0,2.791,2.791A2.794,2.794,0,0,0,541.8,760.9Zm0,4.336a1.545,1.545,0,1,1,1.545-1.545A1.547,1.547,0,0,1,541.8,765.239Z" transform="translate(-526.192 -746.403)" fill="#fff"/>
</svg>

