<svg xmlns="http://www.w3.org/2000/svg" width="76.901" height="23.344" viewBox="0 0 76.901 23.344">
  <g id="Group_786" data-name="Group 786" transform="translate(0 0)">
    <path id="Path_1918" data-name="Path 1918" d="M4216-5558.646h-.062v2.219h5.516v-2.219H4216Z" transform="translate(-4144.556 5563.317)" fill="#ed2546"/>
    <path id="Path_1919" data-name="Path 1919" d="M4031.6-5509.73h-5.331v2.219h5.515v-2.219h-.184Z" transform="translate(-4018.664 5530.85)" fill="#939393"/>
    <path id="Path_1920" data-name="Path 1920" d="M4167.393-5563.193v5c0,1.481-.646,2.33-1.772,2.33h-1.893a2.105,2.105,0,0,1-1.871-1.847c0-.027,0-.057,0-.086v-1.719a3.818,3.818,0,0,0-3.179-4.018l-5.109-1.321a2.392,2.392,0,0,1-1.228-.729,2.012,2.012,0,0,1-.459-1.343v-1.455a1.858,1.858,0,0,1,2.127-1.944h7.834v-2.21h-7.834a3.875,3.875,0,0,0-4.2,4.154v1.455a3.817,3.817,0,0,0,3.179,4.016l5.109,1.322a2.4,2.4,0,0,1,1.229.729,2.013,2.013,0,0,1,.458,1.343v1.333a2.161,2.161,0,0,1-2.127,2.329l-4.934,0v0l-11.3,0c-1.126,0-1.772-.849-1.772-2.33v-5h-2.062v5c0,2.808,1.469,4.55,3.833,4.55h16.234a4.748,4.748,0,0,0,2.161-.468,3.547,3.547,0,0,0,.984-.741,3.489,3.489,0,0,0,.979.741,4.441,4.441,0,0,0,1.508.431l2.328.038c2.364,0,3.833-1.743,3.833-4.55v-5Z" transform="translate(-4092.553 5572.535)" fill="#ed2546"/>
    <path id="Path_1921" data-name="Path 1921" d="M4076.34-5554.135c0,1.481-.646,2.33-1.772,2.33l-1.622.012a2.161,2.161,0,0,1-2.126-2.33v-5.042h-2.088v5.042a2.162,2.162,0,0,1-2.127,2.33h-.937a2.132,2.132,0,0,1-2.118-2.113v-5.259h-2.08v5.259a2.131,2.131,0,0,1-2.118,2.113h-.962a2.162,2.162,0,0,1-2.127-2.33V-5566.3c0-.042.007-.081.009-.124H4054.2c0,.043-.006.081-.006.124v12.56c0,.123.006.254.016.4,0,.032,0,.063.008.094l0,.027c.009.093.021.187.034.278l0,.031c0,.031.008.062.014.093.023.131.047.247.074.353.006.022.012.044.019.067s.007.022.011.034c.026.092.05.171.075.242.018.052.037.1.055.149s.048.117.078.183l.013.028c.015.036.034.077.054.117.049.1.1.187.149.271a3.478,3.478,0,0,0,1.43,1.314,4.7,4.7,0,0,0,2.069.465v0h1.053a4.737,4.737,0,0,0,2.16-.469,3.515,3.515,0,0,0,1-.755,3.513,3.513,0,0,0,1,.755,4.742,4.742,0,0,0,2.16.469h.937a4.736,4.736,0,0,0,2.159-.469,3.507,3.507,0,0,0,1.011-.769,3.5,3.5,0,0,0,1.01.769,4.741,4.741,0,0,0,2.16.469h1.622c2.364,0,3.833-1.743,3.833-4.55v-5h-2.062Z" transform="translate(-4037.199 5568.478)" fill="#939393"/>
    <path id="Path_1922" data-name="Path 1922" d="M4014.716-5539.754c0,1.481-.646,2.33-1.771,2.33h-1.937c-1.021,0-1.645-.7-1.753-1.932v-5.4h-2.08v5q0,.272.019.53v3.92c0,1.481-.646,2.33-1.772,2.33h-1.761v2.222h1.761c2.365,0,3.833-1.744,3.833-4.552v-.3a3.843,3.843,0,0,0,1.729.4h1.961c2.364,0,3.833-1.743,3.833-4.551v-5h-2.062Z" transform="translate(-4003.661 5554.096)" fill="#939393"/>
    <path id="Path_1923" data-name="Path 1923" d="M4014.806-5557.729a1.388,1.388,0,0,0,1.035-.442,1.451,1.451,0,0,0,.429-1.047,1.411,1.411,0,0,0-.429-1.035,1.411,1.411,0,0,0-1.035-.429,1.441,1.441,0,0,0-1.06.429,1.409,1.409,0,0,0-.429,1.035,1.449,1.449,0,0,0,.429,1.047A1.417,1.417,0,0,0,4014.806-5557.729Z" transform="translate(-4010.07 5564.668)" fill="#939393"/>
  </g>
</svg>
