<svg xmlns="http://www.w3.org/2000/svg" width="21.427" height="14.094" viewBox="0 0 21.427 14.094">
  <g id="Group_765" data-name="Group 765" transform="translate(0)">
    <path id="Path_1807" data-name="Path 1807" d="M4183.936,1834h-16.444a2.494,2.494,0,0,0-2.491,2.491v9.112a2.494,2.494,0,0,0,2.491,2.491h16.444a2.494,2.494,0,0,0,2.491-2.491v-9.112A2.494,2.494,0,0,0,4183.936,1834Zm-16.444.826h16.444a1.667,1.667,0,0,1,1.666,1.666v6.424h-19.775v-6.424A1.668,1.668,0,0,1,4167.491,1834.826Zm16.444,12.443h-16.444a1.668,1.668,0,0,1-1.666-1.665v-1.036H4185.6v1.036A1.667,1.667,0,0,1,4183.936,1847.269Z" transform="translate(-4165 -1834)" fill="#4d4d4d"/>
  </g>
</svg>
