<svg xmlns="http://www.w3.org/2000/svg" width="14.736" height="25.408" viewBox="0 0 14.736 25.408">
  <path id="Path_2951" data-name="Path 2951" d="M898.382,2048h-9.505a2.619,2.619,0,0,0-2.616,2.616v20.177a2.619,2.619,0,0,0,2.616,2.616h9.505a2.619,2.619,0,0,0,2.616-2.616v-20.177A2.619,2.619,0,0,0,898.382,2048Zm1.6,22.792a1.6,1.6,0,0,1-1.6,1.6h-9.505a1.6,1.6,0,0,1-1.6-1.6v-20.177a1.6,1.6,0,0,1,1.6-1.6h1.449v.408a.609.609,0,0,0,.609.609h5.389a.609.609,0,0,0,.609-.609v-.408h1.449a1.6,1.6,0,0,1,1.6,1.6Z" transform="translate(-886.261 -2048)" fill="#666"/>
</svg>
