<svg xmlns="http://www.w3.org/2000/svg" width="20.891" height="18.038" viewBox="0 0 20.891 18.038">
  <g id="Group_841" data-name="Group 841" transform="translate(0)">
    <g id="Group_840" data-name="Group 840" transform="translate(0 0)">
      <path id="Path_2433" data-name="Path 2433" d="M951.952,83.592a5.507,5.507,0,0,0-2.925-.85,5.617,5.617,0,0,1-9.163,0,5.5,5.5,0,0,0-2.925.85,6.631,6.631,0,0,0-2.15,8.669c1.323,2.475,6.909,6.774,8.926,8.277a1.221,1.221,0,0,0,1.462,0c2.018-1.5,7.6-5.8,8.927-8.277A6.631,6.631,0,0,0,951.952,83.592Zm1.313,8.221c-.992,1.855-5.122,5.33-8.657,7.963a.272.272,0,0,1-.327,0c-3.534-2.633-7.664-6.108-8.656-7.963a5.675,5.675,0,0,1,1.815-7.416,4.577,4.577,0,0,1,2.422-.706,4.758,4.758,0,0,1,3.82,1.985l.761,1.023.762-1.023a4.757,4.757,0,0,1,3.82-1.985,4.583,4.583,0,0,1,2.423.706A5.676,5.676,0,0,1,953.265,91.813Z" transform="translate(-934 -82.742)" fill="#828282"/>
    </g>
  </g>
</svg>
