<svg xmlns="http://www.w3.org/2000/svg" width="21.562" height="20.02" viewBox="0 0 21.562 20.02">
  <g id="Group_881" data-name="Group 881" transform="translate(0.5 0.5)">
    <path id="Path_2952" data-name="Path 2952" d="M880,2239.29c.031-.146.055-.294.093-.438a2.285,2.285,0,0,1,.584-1.058c.529-.532,1.057-1.065,1.595-1.589a1.374,1.374,0,0,1,1.578-.391,1.926,1.926,0,0,1,.584.39c.8.782,1.588,1.576,2.374,2.372a1.472,1.472,0,0,1,.5,1.292,1.722,1.722,0,0,1-.551.956c-.446.448-.9.892-1.342,1.338-.231.23-.235.292-.1.59a11.24,11.24,0,0,0,2.125,3,13.8,13.8,0,0,0,2.793,2.366c.355.223.738.4,1.108.6a.325.325,0,0,0,.42-.1c.464-.467.921-.941,1.4-1.394a2.423,2.423,0,0,1,.636-.456,1.286,1.286,0,0,1,1.354.185,2.548,2.548,0,0,1,.3.259c.756.752,1.515,1.5,2.26,2.263a2.339,2.339,0,0,1,.456.635,1.224,1.224,0,0,1-.219,1.4c-.583.643-1.2,1.255-1.824,1.859a2.283,2.283,0,0,1-1.255.576c-.058.01-.114.028-.17.042h-.75c-.044-.012-.087-.026-.131-.035-.565-.118-1.144-.188-1.692-.361a16.335,16.335,0,0,1-4.479-2.328,20.515,20.515,0,0,1-6.038-6.68,13.778,13.778,0,0,1-1.346-3.188c-.11-.4-.171-.82-.255-1.229Z" transform="translate(-880 -2234.96)" fill="none" stroke="#666" stroke-miterlimit="10" stroke-width="1"/>
    <path id="Path_2953" data-name="Path 2953" d="M923.14,2242.013a8.514,8.514,0,0,0-8.514-8.514c-.191,0-.38.008-.568.021" transform="translate(-902.578 -2233.5)" fill="none" stroke="#666" stroke-linecap="round" stroke-linejoin="bevel" stroke-width="1"/>
    <path id="Path_2954" data-name="Path 2954" d="M911.517,2243.491a5.967,5.967,0,0,1,.681-.04,5.9,5.9,0,0,1,5.9,5.9" transform="translate(-900.893 -2240.097)" fill="none" stroke="#666" stroke-linecap="round" stroke-linejoin="bevel" stroke-width="1"/>
  </g>
</svg>
