<svg xmlns="http://www.w3.org/2000/svg" width="23.756" height="23.881" viewBox="0 0 23.756 23.881">
  <g id="Group_882" data-name="Group 882" transform="translate(0 0)">
    <path id="Path_2955" data-name="Path 2955" d="M893.345,2403.99a.89.89,0,0,0-.66.284.94.94,0,0,0-.276.681.944.944,0,0,0,.936.935.922.922,0,0,0,.667-.276.889.889,0,0,0,.284-.659.93.93,0,0,0-.284-.681A.915.915,0,0,0,893.345,2403.99Z" transform="translate(-885.303 -2392.775)" fill="#4d4d4d"/>
    <path id="Path_2956" data-name="Path 2956" d="M905.255,2403.99a.89.89,0,0,0-.66.284.94.94,0,0,0-.276.681.944.944,0,0,0,.936.935.922.922,0,0,0,.667-.276.89.89,0,0,0,.283-.659.931.931,0,0,0-.283-.681A.915.915,0,0,0,905.255,2403.99Z" transform="translate(-893.199 -2392.775)" fill="#4d4d4d"/>
    <path id="Path_2957" data-name="Path 2957" d="M917.163,2403.99a.891.891,0,0,0-.66.284.94.94,0,0,0-.276.681.944.944,0,0,0,.936.935.922.922,0,0,0,.667-.276.89.89,0,0,0,.283-.659.931.931,0,0,0-.283-.681A.915.915,0,0,0,917.163,2403.99Z" transform="translate(-901.093 -2392.775)" fill="#4d4d4d"/>
    <path id="Path_2958" data-name="Path 2958" d="M894.757,2379.8a11.882,11.882,0,0,0-9.267-8.865,12.555,12.555,0,0,0-2.306-.216,11.879,11.879,0,0,0-2.441,23.5,12.109,12.109,0,0,0,2.454.252,11.806,11.806,0,0,0,4.513-.894,1.712,1.712,0,0,1,.64-.134,1.351,1.351,0,0,1,.4.059l3.322,1.018a1.772,1.772,0,0,0,.522.079,1.766,1.766,0,0,0,1.727-2.091l-.677-3.6a1.528,1.528,0,0,1,.162-.964h0A11.833,11.833,0,0,0,894.757,2379.8Zm-1.8,7.71a2.469,2.469,0,0,0-.248,1.572l.677,3.6a.814.814,0,0,1-.792.961.831.831,0,0,1-.244-.037l-3.323-1.019a2.3,2.3,0,0,0-.674-.1,2.635,2.635,0,0,0-1,.206,10.815,10.815,0,0,1-4.15.822,11.168,11.168,0,0,1-2.261-.233,10.928,10.928,0,0,1,2.248-21.617,11.583,11.583,0,0,1,2.131.2,10.905,10.905,0,0,1,7.638,15.64Z" transform="translate(-871.328 -2370.721)" fill="#4d4d4d"/>
  </g>
</svg>
