<svg id="Group_763" data-name="Group 763" xmlns="http://www.w3.org/2000/svg" width="15.498" height="15.491" viewBox="0 0 15.498 15.491">
  <path id="Path_1803" data-name="Path 1803" d="M4186.78,1782.775c-.007.02-.014.039-.02.059a.484.484,0,0,1-.522.342.475.475,0,0,1-.424-.481q0-1.146,0-2.292v-.106c-.025.033-.041.052-.054.072a8.221,8.221,0,0,1-2.94,2.788,7.568,7.568,0,0,1-2.822.932,7.814,7.814,0,0,1-8.009-4.455,7.433,7.433,0,0,1-.674-2.567c-.016-.2-.017-.405-.031-.607a.488.488,0,0,1,.481-.541.5.5,0,0,1,.491.525,6.685,6.685,0,0,0,3.343,5.794,6.8,6.8,0,0,0,3.861.927,6.482,6.482,0,0,0,3.4-1.176,6.994,6.994,0,0,0,2.516-3.086c.007-.017.015-.034.021-.051a.119.119,0,0,0,0-.028h-3.433a.484.484,0,0,1-.074-.965c.026,0,.052,0,.079,0h4.807Z" transform="translate(-4171.282 -1768.656)" fill="#4d4d4d"/>
  <path id="Path_1804" data-name="Path 1804" d="M4186.782,1767.473l-.026.074a.481.481,0,0,1-.542.322.474.474,0,0,1-.4-.463,6.85,6.85,0,0,0-.318-2.077,6.613,6.613,0,0,0-3.506-4.022,6.766,6.766,0,0,0-3.387-.676,6.507,6.507,0,0,0-3.325,1.123,7.025,7.025,0,0,0-2.4,2.723c-.079.157-.148.319-.229.5h3.45a.484.484,0,0,1,.064.965c-.034,0-.068,0-.1,0h-4.772v-.084q0-2.364,0-4.727a.483.483,0,1,1,.964-.054c.005.279,0,.558,0,.838v1.672l.014,0c.014-.021.029-.041.042-.062a8.086,8.086,0,0,1,3.386-3.111,7.3,7.3,0,0,1,2.677-.738l.377-.03h.426c.037,0,.073.011.11.013a7.84,7.84,0,0,1,5.8,2.906,7.535,7.535,0,0,1,1.65,3.994c.017.162.03.325.046.487Z" transform="translate(-4171.284 -1759.646)" fill="#4d4d4d"/>
</svg>
