<svg xmlns="http://www.w3.org/2000/svg" width="19.611" height="16.084" viewBox="0 0 19.611 16.084">
  <g id="Group_761" data-name="Group 761" transform="translate(0)">
    <path id="Path_1795" data-name="Path 1795" d="M3866.806,1774.429a.933.933,0,0,1,.2.121q1.76,1.767,3.514,3.539a1.5,1.5,0,0,1,.158.171.5.5,0,0,1-.049.642.505.505,0,0,1-.659.053,2.592,2.592,0,0,1-.261-.248l-4.459-4.485a.5.5,0,0,1,0-.782q2.3-2.276,4.6-4.551a.509.509,0,0,1,.9.163.518.518,0,0,1-.179.551q-1.027,1.014-2.051,2.031-.746.74-1.494,1.478a1.939,1.939,0,0,1-.182.143l.029.054c.058.005.116.015.174.015q6.07,0,12.139,0a4.489,4.489,0,0,0,4.374-3.652,4.625,4.625,0,0,0-1.777-4.814,4.357,4.357,0,0,0-2.737-.874q-3.491,0-6.982,0a1.3,1.3,0,0,1-.337-.028.5.5,0,0,1-.005-.941,1.067,1.067,0,0,1,.313-.04q3.5,0,7,0a5.686,5.686,0,0,1,1.124,11.251,5.272,5.272,0,0,1-1.073.1q-5.974.011-11.948,0h-.27Z" transform="translate(-3865.068 -1762.969)" fill="#4d4d4d"/>
  </g>
</svg>
